<svg
      
        xmlns="http://www.w3.org/2000/svg"
        version="1.0"
        viewBox="0 0 891.000000 436.000000"
        preserveAspectRatio="xMidYMid meet"
        className="md:h-[70pt] md:w-[100pt] sm:h-[70pt] sm:w-[70pt] xs:h-[55pt] xs:w-[100pt] xsx:h-[55pt] xxs:w-[80pt]"
      >
        <g
          transform="translate(0.000000,436.000000) scale(0.100000,-0.100000)"
          stroke="none"
          fill="#FFC300"
        >
          <path d="M4378 4262 c-12 -15 -142 -234 -288 -486 -160 -277 -275 -465 -290 -475 -21 -14 -77 -17 -395 -21 -333 -4 -374 -7 -398 -23 -41 -26 -538 -415 -569 -445 -16 -14 -28 -36 -28 -48 0 -14 115 -169 310 -419 171 -219 314 -409 318 -424 4 -14 7 -355 7 -757 0 -706 -1 -733 -19 -753 -19 -21 -19 -21 -781 -21 -725 0 -763 1 -778 18 -15 17 -17 71 -17 574 0 598 0 596 49 562 12 -9 117 -142 232 -295 123 -164 220 -285 235 -292 21 -9 31 -8 55 5 16 9 184 134 374 278 248 187 347 268 351 285 4 16 0 35 -12 53 -58 90 -1263 1678 -1284 1691 -21 14 -90 16 -632 16 -570 0 -608 -1 -625 -18 -17 -17 -18 -94 -18 -1586 0 -1529 0 -1569 19 -1590 l19 -21 4203 0 c3805 0 4204 1 4218 16 9 8 18 25 21 37 3 12 4 721 3 1575 -3 1525 -3 1554 -22 1568 -31 22 -1234 21 -1276 -1 -33 -17 -526 -400 -577 -448 -18 -17 -33 -41 -33 -53 0 -14 116 -171 310 -419 171 -219 314 -409 318 -424 4 -14 7 -355 7 -757 0 -706 -1 -733 -19 -753 -19 -21 -19 -21 -781 -21 -725 0 -763 1 -778 18 -15 17 -17 71 -17 574 0 597 0 596 48 562 12 -8 119 -143 237 -299 118 -156 224 -287 235 -290 30 -9 53 6 430 292 224 168 342 264 346 279 3 12 0 33 -7 46 -28 53 -1263 1680 -1287 1696 -23 15 -67 18 -394 22 l-368 5 -24 25 c-13 14 -142 230 -286 480 -238 414 -286 490 -310 490 -5 0 -19 -13 -32 -28z m75 -684 c32 -45 377 -643 390 -679 9 -24 8 -32 -6 -46 -16 -17 -52 -18 -415 -21 -416 -2 -442 0 -450 41 -3 17 344 635 395 705 13 17 33 32 43 32 10 0 30 -15 43 -32z m37 -1088 c20 -20 20 -33 20 -1042 0 -1166 9 -1058 -92 -1058 -45 0 -63 5 -78 20 -20 20 -20 33 -20 1040 0 1007 0 1020 20 1040 15 15 33 20 75 20 42 0 60 -5 75 -20z" />
          <path d="M196 4015 c-14 -14 -16 -50 -16 -291 0 -261 1 -275 20 -294 20 -20 33 -20 563 -20 589 0 607 2 557 48 -13 12 -60 40 -104 63 -45 24 -279 145 -520 271 -242 126 -449 231 -461 234 -13 3 -29 -1 -39 -11z" />
          <path d="M8065 3754 c-291 -151 -539 -284 -550 -294 -43 -44 -28 -45 551 -48 l544 -2 25 24 25 25 0 263 c0 222 -2 267 -16 286 -8 12 -23 22 -32 22 -9 -1 -255 -125 -547 -276z" />
        </g>
      </svg>